<svg width="100" height="37" viewBox="0 0 100 37" fill="none" xmlns="http://www.w3.org/2000/svg">
<path d="M35.6382 0H23.7166L29.6779 10.3255L35.6382 0Z" fill="white"/>
<path d="M20.7346 0H8.81305L14.774 10.3255L20.7346 0Z" fill="white"/>
<path d="M7.32266 0.861816L1.36176 11.1861H13.2836L7.32266 0.861816Z" fill="white"/>
<path d="M22.2257 0.861816L16.2654 11.1861H28.1872L22.2257 0.861816Z" fill="white"/>
<path d="M28.1872 12.9082H16.2654L22.2257 23.2333L28.1872 12.9082Z" fill="white"/>
<path d="M14.774 13.7676L8.81305 24.0932H20.7346L14.774 13.7676Z" fill="white"/>
<path d="M35.6382 25.814H23.7166L29.6779 36.1401L35.6382 25.814Z" fill="white"/>
<path d="M20.7346 25.814H8.81305L14.774 36.1401L20.7346 25.814Z" fill="white"/>
<path d="M7.32266 26.675L1.36176 36.9999H13.2836L7.32266 26.675Z" fill="white"/>
<path d="M22.2257 26.675L16.2654 36.9999H28.1872L22.2257 26.675Z" fill="white"/>
<path d="M48.268 36.2881C44.86 36.2881 42.304 35.3041 40.6 33.3361C38.92 31.3681 38.08 28.1881 38.08 23.7961C38.08 19.3801 39.004 16.1281 40.852 14.0401C42.724 11.9281 45.376 10.8721 48.808 10.8721C52.264 10.8721 54.832 11.8081 56.512 13.6801C58.216 15.5521 59.068 18.6841 59.068 23.0761C59.068 27.4681 58.12 30.7681 56.224 32.9761C54.328 35.1841 51.676 36.2881 48.268 36.2881ZM44.776 16.8121C43.912 18.0601 43.48 20.2321 43.48 23.3281C43.48 26.4241 43.936 28.6801 44.848 30.0961C45.76 31.5121 47.008 32.2201 48.592 32.2201C50.2 32.2201 51.448 31.5601 52.336 30.2401C53.224 28.8961 53.668 26.6761 53.668 23.5801C53.668 17.8201 51.94 14.9401 48.484 14.9401C46.876 14.9401 45.64 15.5641 44.776 16.8121ZM78.0608 11.1601V17.4241L75.3968 17.7481C74.8448 17.2681 74.4008 16.3801 74.0648 15.0841H68.4488V21.6361H73.4528C73.7408 20.9161 74.0408 20.4121 74.3528 20.1241L76.6208 20.3761V26.7841L74.3528 27.0721C74.0408 26.8321 73.7408 26.3281 73.4528 25.5601H68.4488V31.5361C70.0568 31.8961 71.2208 32.3881 71.9408 33.0121L71.5808 36.0001H61.6448L61.2848 33.0121C61.5968 32.6041 62.2568 32.2081 63.2648 31.8241V15.3721C62.2808 15.0121 61.6208 14.6041 61.2848 14.1481L61.6448 11.1601H78.0608ZM99.4246 11.1961V16.3441L97.1566 16.6321C96.8446 16.3921 96.5446 15.8881 96.2566 15.1201H91.9366V31.8241C92.8966 32.2081 93.5566 32.6041 93.9166 33.0121L93.5566 36.0001H85.1326L84.7726 33.0121C85.0846 32.6041 85.7446 32.2081 86.7526 31.8241V15.1201H82.4326C82.1446 15.8881 81.8446 16.3921 81.5326 16.6321L79.2646 16.3441V11.1961H99.4246Z" fill="white"/>
</svg>
