<svg width="100" height="37" fill="none" xmlns="http://www.w3.org/2000/svg"><path d="M35.638 0H23.717l5.96 10.325L35.639 0zM20.735 0H8.813l5.961 10.325L20.734 0zM7.323.862L1.362 11.186h11.922L7.323.862zm14.903 0l-5.96 10.324h11.921L22.226.862zm5.961 12.046H16.265l5.96 10.325 5.962-10.325zm-13.413.86l-5.96 10.325h11.92l-5.96-10.325zm20.864 12.046H23.717l5.96 10.326 5.961-10.326zm-14.903 0H8.813l5.961 10.326 5.96-10.326zm-13.412.861L1.362 37h11.922L7.323 26.675zm14.903 0L16.266 37h11.921l-5.961-10.325zm26.042 9.613c-3.408 0-5.964-.984-7.668-2.952-1.68-1.968-2.52-5.148-2.52-9.54 0-4.416.924-7.668 2.772-9.756 1.872-2.112 4.524-3.168 7.956-3.168 3.456 0 6.024.936 7.704 2.808 1.704 1.872 2.556 5.004 2.556 9.396 0 4.392-.948 7.692-2.844 9.9s-4.548 3.312-7.956 3.312zm-3.492-19.476c-.864 1.248-1.296 3.42-1.296 6.516s.456 5.352 1.368 6.768c.912 1.416 2.16 2.124 3.744 2.124 1.608 0 2.856-.66 3.744-1.98.888-1.344 1.332-3.564 1.332-6.66 0-5.76-1.728-8.64-5.184-8.64-1.608 0-2.844.624-3.708 1.872zm33.285-5.652v6.264l-2.664.324c-.552-.48-.996-1.368-1.332-2.664h-5.616v6.552h5.004c.288-.72.588-1.224.9-1.512l2.268.252v6.408l-2.268.288c-.312-.24-.612-.744-.9-1.512h-5.004v5.976c1.608.36 2.772.852 3.492 1.476L71.58 36h-9.936l-.36-2.988c.312-.408.972-.804 1.98-1.188V15.372c-.984-.36-1.644-.768-1.98-1.224l.36-2.988H78.06zm21.364.036v5.148l-2.268.288c-.312-.24-.612-.744-.9-1.512h-4.32v16.704c.96.384 1.62.78 1.98 1.188L93.557 36h-8.424l-.36-2.988c.312-.408.972-.804 1.98-1.188V15.12h-4.32c-.288.768-.588 1.272-.9 1.512l-2.268-.288v-5.148h20.16z" fill="#fff"/></svg>